#!OML:ASF E:/inclinewalkrobotboard/Project1/Captureday1/Session1/subject1.ASF
:FULLY-SPECIFIED
:DEGREES
151
root 0 0 0 1.1079514884895685 -3.740191111115441 1.8028296389636924
lowerback 11.995320740413478 0.862009718713446 -0.07692127483642447
upperback -4.182507489602784 1.0910385082616798 -0.5396225594496289
thorax -11.297354304558917 0.5003904815245458 -0.7746327959377106
lowerneck -5.922067181856344 1.4701143027096986 4.520640703007202
upperneck 18.04082252896778 2.915452998637642 -8.266557106969804
head 6.615807931449942 1.0617147643642384 -3.1943825244906785
rclavicle -1.2350850421918368E-15 3.992097128036495E-16
rhumerus 19.64136574558858 14.047395190186833 -47.80817326952456
rradius 72.07058990682023
rwrist 27.218736749913425
rhand -34.88337602781512 -57.52903129148767
rfingers 7.125020000000043
rthumb -8.024881379597057 -87.3085872881183
lclavicle 1.0716289830188514E-15 -2.7156362187987818E-15
lhumerus 20.599495683491625 -12.31359537889547 45.61698902689485
lradius 69.53488569493925
lwrist -22.203873376870256
lhand -44.756815087611315 -70.15031173666125
lfingers 7.125020000000015
lthumb -17.564611735449393 -41.043696127224564
rfemur -25.191156142259178 -2.1624443246841794 16.896485600594417
rtibia 54.19812350257619
rfoot -28.22690620466229 -16.764580943662313
rtoes -17.85486049745802
lfemur -27.4428271362335 2.482322559993886 -18.264936279751645
ltibia 53.66165825455094
lfoot -31.885987686014843 -3.2529252843702134
ltoes -19.563719388290245
152
root 0 0 0 1.135107728389394 -3.7061906333375263 1.81150643231113
lowerback 11.990424178337665 0.8613051676184861 -0.09034197142786432
upperback -4.201771897121882 1.0875345776067133 -0.5466250645464636
thorax -11.316140615701126 0.4990449673309884 -0.7740764731014446
lowerneck -5.993437971922139 1.4832270165527262 4.497077862421439
upperneck 18.109930282908323 2.9304256937581057 -8.215390782948678
head 6.650419394350532 1.0685121140003178 -3.173155112797046
rclavicle -1.6782296577791677E-15 4.450434400314699E-16
rhumerus 19.52563259666843 13.945210941991842 -47.82340377454476
rradius 71.96181584644614
rwrist 27.201310404604385
rhand -34.80477837421918 -57.323829193542174
rfingers 7.125020000000042
rthumb -7.94902434878111 -87.11510190926333
lclavicle 4.2815849097214156E-16 -2.4631946475803913E-15
lhumerus 20.502680624237076 -12.301879771773097 45.69109843037092
lradius 69.4428147833629
lwrist -22.123353887335448
lhand -44.70895553443249 -69.8372042339238
lfingers 7.125020000000015
lthumb -17.51632931215499 -40.729151361311665
rfemur -25.175536995731285 -2.1605374771662 16.86978799053916
rtibia 54.17813130201993
rfoot -28.120566673703422 -16.733919474861814
rtoes -17.893745947008266
lfemur -27.332993987856057 2.4702308304670373 -18.287742839682625
ltibia 53.55233730709141
lfoot -31.69782022857052 -3.3214603206344906
ltoes -19.512130040914275
153
root 0 0 0 1.1443609813929783 -3.6916684052003426 1.8142211725497077
lowerback 11.993374978815593 0.8633380929737893 -0.09457941168656761
upperback -4.205455586818232 1.0892931691557086 -0.5499777017190657
thorax -11.322060843087508 0.500000426363931 -0.7756898975192633
lowerneck -6.027750610930623 1.486950900421505 4.491907972680334
upperneck 18.12744641179659 2.9337647208698208 -8.199866506536656
head 6.661848680171319 1.069970910257577 -3.166923796529483
rclavicle -1.1539840845870257E-15 4.807612139476128E-16
rhumerus 19.52199738363585 13.944040257956443 -47.83871250225289
rradius 71.95457117492036
rwrist 27.18446348092906
rhand -34.79551959171555 -57.28525352970924
rfingers 7.12502000000004
rthumb -7.940181280393069 -87.0672623684598
lclavicle 1.3630379518245472E-15 -2.3255824599544363E-15
lhumerus 20.438165127010045 -12.26979128511937 45.71060116138877
lradius 69.39082785516263
lwrist -22.11936578228113
lhand -44.67400054624233 -69.72762158490119
lfingers 7.125020000000016
lthumb -17.486063271627454 -40.59153032284464
rfemur -25.162678867588255 -2.159000505410177 16.87769131222128
rtibia 54.18004523346559
rfoot -28.10250067532041 -16.737955720046823
rtoes -17.880036293547665
lfemur -27.310980506723094 2.4647647537634345 -18.27801716404373
ltibia 53.6990138391486
lfoot -31.633122787460643 -3.3495396000854227
ltoes -19.419871151511003
154
root 0 0 0 1.1215920705559124 -3.7244697797279818 1.8076365321916392
lowerback 11.99616515493966 0.8629533372339295 -0.08321717108366986
upperback -4.19030586903 1.0910043790114485 -0.5437905577077267
thorax -11.306669464514682 0.5005627377935478 -0.7755718511548995
lowerneck -5.959431576360933 1.4758469592783652 4.510963720628718
upperneck 18.069470127311217 2.921616396186704 -8.244029891053355
head 6.631506654529863 1.0644845496156012 -3.1851402811309097
rclavicle -1.2418937737755584E-15 4.0359335356128416E-16
rhumerus 19.609315366752675 14.017246179647572 -47.81984564558442
rradius 72.04659793550854
rwrist 27.21903560532288
rhand -34.90606195152075 -57.54323217763864
rfingers 7.125020000000043
rthumb -8.046991733240148 -87.3231504256254
lclavicle 1.1107682123201723E-15 -2.7303777868842392E-15
lhumerus 20.576753690550667 -12.291802462214562 45.639764319222344
lradius 69.51008995812003
lwrist -22.19595634346668
lhand -44.757689981745045 -70.17168062324085
lfingers 7.125020000000016
lthumb -17.565469597101842 -41.06269661363589
rfemur -25.19834823680864 -2.1641203282998105 16.89016833316487
rtibia 54.20175207715717
rfoot -28.207181962223125 -16.762368222029814
rtoes -17.85098618946958
lfemur -27.447826484858567 2.4773551650072165 -18.273309736902462
ltibia 53.674617593089415
lfoot -31.871807277548857 -3.2675750917349555
ltoes -19.494647967709064
